<svg version="1.1" id="Layer_1" xmlns="http://www.w3.org/2000/svg" xmlns:xlink="http://www.w3.org/1999/xlink" x="0px" y="0px"
	 width="100%" viewBox="0 0 1200 1200" enable-background="new 0 0 1200 1200" xml:space="preserve">
<path fill="#850056" opacity="1.000000" stroke="none" 
	d="
M415.333405,994.690308 
	C388.203125,981.927429 363.211609,966.323181 339.534576,948.642395 
	C318.595367,933.006042 299.343475,915.354309 281.776703,896.063049 
	C257.280975,869.162720 236.337082,839.667969 219.085938,807.508911 
	C198.806137,769.703918 184.660889,729.750000 176.315338,687.800598 
	C173.163376,671.957153 171.587311,655.753479 170.101440,639.639404 
	C168.808990,625.623108 167.866623,611.485168 168.160400,597.430054 
	C168.808014,566.446716 172.340485,535.739807 179.276810,505.462463 
	C188.177536,466.610474 202.584137,429.848846 221.645676,394.954529 
	C234.678055,371.097260 249.763718,348.500031 267.647064,327.949005 
	C278.428040,315.559845 289.037048,302.851227 301.104584,291.793549 
	C316.940765,277.282623 333.426819,263.250580 350.947144,250.872025 
	C368.871643,238.207932 387.831696,226.725723 407.322357,216.624817 
	C441.567749,198.877396 477.999268,186.627441 515.900269,179.336868 
	C531.611816,176.314621 547.614807,174.554779 563.565552,173.102859 
	C578.086548,171.781113 592.723450,170.993927 607.296448,171.151489 
	C630.305725,171.400253 653.169189,173.697464 675.892212,177.712662 
	C698.597839,181.724823 720.858459,187.236038 742.615784,194.807098 
	C774.662598,205.958649 805.012695,220.582413 833.559570,238.987503 
	C852.520630,251.212265 870.573364,264.566467 887.297363,279.731720 
	C904.668152,295.483490 921.079529,312.099731 935.957275,330.281586 
	C955.012512,353.568573 971.282043,378.574036 985.174377,405.252686 
	C1001.082764,435.802795 1013.554749,467.648315 1020.992188,501.234314 
	C1025.336670,520.853638 1028.877197,540.794922 1030.737793,560.781372 
	C1032.735107,582.236328 1033.564819,603.962646 1032.708496,625.483154 
	C1031.344849,659.750122 1025.601807,693.503784 1015.761414,726.466187 
	C1008.351929,751.285889 998.907043,775.304565 987.221924,798.408936 
	C973.506042,825.528564 957.423767,851.200439 937.874268,874.497253 
	C926.048035,888.590454 913.881653,902.502502 900.792786,915.405151 
	C884.541382,931.425415 867.150085,946.366638 847.791931,958.593140 
	C829.210205,970.329224 810.535522,982.077576 791.058960,992.198914 
	C763.973877,1006.273987 735.248779,1016.787903 705.473145,1023.486389 
	C684.410400,1028.224731 662.914978,1031.568481 641.431580,1033.752441 
	C621.820740,1035.745850 601.927002,1036.449951 582.227966,1035.750366 
	C547.607605,1034.520874 513.524109,1028.988647 480.173523,1019.206848 
	C458.036346,1012.713989 436.583862,1004.524658 415.333405,994.690308 
M625.260193,756.855408 
	C626.946350,757.236328 628.631531,757.943604 630.318909,757.948914 
	C653.642822,758.021606 676.968262,757.872314 700.290161,758.102234 
	C705.030762,758.148987 706.122986,756.515808 706.085449,752.092896 
	C705.898743,730.103149 705.912659,708.110107 706.115234,686.120605 
	C706.140808,683.342163 707.092407,680.173584 708.639099,677.874756 
	C716.669861,665.937988 725.036438,654.227173 733.277588,642.431824 
	C735.461975,639.305359 737.385132,639.653625 739.209717,642.782715 
	C743.117004,649.483337 747.111938,656.133606 750.966064,662.864502 
	C768.305176,693.145813 785.638794,723.430237 802.875671,753.769714 
	C804.627502,756.853271 806.696899,758.099976 810.331787,758.078491 
	C835.987427,757.926941 861.644470,758.005249 887.301025,757.983826 
	C889.027588,757.982422 890.753967,757.766418 893.031372,757.613159 
	C892.099548,755.755249 891.594421,754.560852 890.934204,753.459412 
	C877.581543,731.184265 864.213623,708.918274 850.843506,686.653625 
	C837.894043,665.089600 824.943359,643.526306 811.984314,621.968018 
	C803.288940,607.502808 794.619080,593.022095 785.839539,578.608093 
	C784.085144,575.727844 783.835938,573.356995 785.995544,570.477356 
	C799.070801,553.043030 812.013672,535.509399 824.997070,518.006165 
	C835.134460,504.339600 845.315857,490.705200 855.383301,476.987244 
	C861.908386,468.096130 868.263794,459.080566 875.256897,449.338318 
	C872.563416,449.198914 870.653564,449.015503 868.743591,449.014038 
	C843.753418,448.994812 818.762268,449.115021 793.773926,448.902161 
	C788.978943,448.861328 786.181030,450.781403 783.656677,454.539978 
	C770.852478,473.604309 757.819092,492.514526 744.984741,511.558777 
	C736.492981,524.159424 728.239258,536.920227 719.798584,549.555603 
	C717.043884,553.679199 714.119995,557.698547 711.085327,561.619934 
	C710.308777,562.623413 708.815308,563.071960 707.651245,563.775513 
	C707.105164,562.537048 706.323853,561.343628 706.075684,560.048096 
	C705.798523,558.601074 706.002075,557.061340 706.001953,555.561951 
	C706.000366,521.908508 705.985168,488.255066 706.021790,454.601715 
	C706.025269,451.380432 706.128906,448.882874 701.484131,448.920105 
	C677.328552,449.113586 653.170471,448.979095 629.013794,449.090454 
	C627.705505,449.096466 626.402649,450.292236 625.062744,451.876465 
	C625.041809,500.826385 624.999390,549.776306 625.005798,598.726257 
	C625.012634,651.172424 625.065369,703.618530 625.260193,756.855408 
M570.516113,681.040771 
	C565.457886,664.286621 560.457703,647.514648 555.327026,630.782715 
	C548.605103,608.861755 541.687012,587.000610 535.027527,565.060791 
	C529.083191,545.476929 523.466858,525.793457 517.536621,506.205170 
	C512.130798,488.349213 506.443542,470.578491 501.023468,452.726746 
	C500.208710,450.043152 498.948792,448.966492 496.141968,448.972443 
	C465.978027,449.036316 435.813873,449.033020 405.649872,448.976532 
	C402.932922,448.971436 401.436371,449.799591 400.638855,452.586548 
	C397.874725,462.245789 394.862366,471.833893 391.955170,481.452301 
	C386.751556,498.667999 381.580719,515.893738 376.349823,533.101196 
	C370.878784,551.098572 365.338379,569.074890 359.856262,587.068909 
	C355.682343,600.768982 351.578125,614.490295 347.396210,628.187927 
	C341.277161,648.230530 335.122009,668.262207 328.971375,688.295105 
	C324.219604,703.772034 319.419556,719.234253 314.703888,734.722107 
	C312.424561,742.208130 310.289856,749.738220 307.869476,758.000000 
	C312.788788,758.000000 316.922882,758.000244 321.057007,757.999939 
	C342.555176,757.998230 364.053802,758.053040 385.550751,757.889709 
	C387.324310,757.876282 390.376709,756.696106 390.660828,755.528870 
	C394.986542,737.757812 399.265259,719.961792 402.863770,702.032898 
	C404.661346,693.076843 405.051941,692.001404 413.880493,692.001038 
	C438.378418,691.999939 462.877045,692.094177 487.373657,691.914307 
	C491.623657,691.883118 493.837616,692.967346 494.359619,697.434387 
	C494.719879,700.517273 496.036224,703.475952 496.730316,706.534424 
	C500.237122,721.985718 503.691498,737.448853 507.136383,752.914062 
	C507.911835,756.395447 509.513885,758.122620 513.567505,758.091919 
	C538.730591,757.901123 563.895874,758.002380 589.060425,757.977234 
	C590.321838,757.975952 591.583008,757.700562 592.896240,757.546814 
	C592.896240,756.198730 593.132324,755.133972 592.859924,754.220947 
	C589.937683,744.426270 586.934448,734.655701 583.954529,724.878174 
	C579.577698,710.517090 575.201782,696.155640 570.516113,681.040771 
z"/>

<path fill="#850056" opacity="1.000000" stroke="none" 
	d="
M625.079956,451.405334 
	C625.397705,452.858246 625.960205,454.782166 625.961060,456.706329 
	C626.003723,554.620972 626.000183,652.535583 625.982727,750.450256 
	C625.982422,752.103394 625.749939,753.756531 625.361938,755.737183 
	C625.065369,703.618530 625.012634,651.172424 625.005798,598.726257 
	C624.999390,549.776306 625.041809,500.826385 625.079956,451.405334 
z"/>
<path fill="#850056" opacity="1.000000" stroke="none" 
	d="
M465.121704,573.739746 
	C469.402527,591.104309 473.662567,608.044983 477.809662,625.013245 
	C478.778687,628.978088 476.945282,631.018188 472.853027,631.017273 
	C457.211945,631.013733 441.569916,631.113037 425.930267,630.964783 
	C420.695221,630.915161 419.984070,629.110046 421.273285,624.137207 
	C424.400085,612.076599 427.210663,599.932556 430.042267,587.797302 
	C432.777344,576.075684 435.395355,564.326599 438.035339,552.582947 
	C440.991608,539.432434 443.885376,526.267761 446.907410,513.132446 
	C447.154114,512.060120 448.177734,511.166504 448.840332,510.189850 
	C449.754150,511.174652 451.225800,512.027222 451.495300,513.164734 
	C454.117554,524.231384 456.533600,535.346924 459.018646,546.446228 
	C461.025055,555.407776 463.045502,564.366150 465.121704,573.739746 
z"/>
</svg>